<?xml version="1.0" standalone="no"?>
<!DOCTYPE svg PUBLIC "-//W3C//DTD SVG 20010904//EN"
 "http://www.w3.org/TR/2001/REC-SVG-20010904/DTD/svg10.dtd">
<svg version="1.0" xmlns="http://www.w3.org/2000/svg"
 width="512.000000pt" height="512.000000pt" viewBox="0 0 512.000000 512.000000"
 preserveAspectRatio="xMidYMid meet">

<g transform="translate(0.000000,512.000000) scale(0.100000,-0.100000)"
fill="#000000" stroke="none">
<path d="M2500 4793 c-392 -37 -715 -131 -1028 -299 -437 -235 -839 -635
-1013 -1009 -119 -259 -174 -573 -149 -858 15 -158 14 -125 1 -282 -51 -602
239 -1244 720 -1590 459 -331 1073 -472 1694 -390 416 55 804 210 1120 448
105 80 338 314 449 452 286 358 424 664 491 1090 21 135 31 468 16 565 -6 41
-16 118 -21 170 -5 52 -15 114 -22 138 -12 39 -13 20 -14 -175 0 -187 -3 -233
-23 -323 -85 -398 -322 -811 -676 -1178 -123 -128 -221 -211 -362 -305 -331
-221 -751 -346 -1223 -363 -576 -21 -1154 199 -1515 577 -251 262 -414 606
-480 1014 -56 344 -7 692 140 985 267 531 894 1001 1540 1153 410 97 819 86
1190 -33 439 -141 842 -406 1096 -722 122 -152 205 -304 274 -501 15 -43 30
-76 32 -73 7 7 -17 127 -44 216 -28 95 -116 260 -204 383 -304 426 -892 782
-1449 877 -187 32 -409 46 -540 33z m2221 -2375 c-20 -108 -76 -330 -101 -393
l-12 -30 -19 37 c-10 20 -23 39 -28 43 -5 3 7 40 28 83 49 99 105 240 127 320
10 34 19 60 21 58 3 -2 -5 -55 -16 -118z m-4228 -501 l37 -79 -32 -39 c-23
-28 -34 -36 -39 -27 -25 44 -80 332 -78 408 0 28 8 12 38 -75 21 -60 54 -145
74 -188z m3997 2 c0 -14 7 -48 15 -77 l15 -51 -37 -67 c-35 -64 -37 -66 -47
-43 -5 13 -21 47 -34 76 l-25 52 47 72 c25 40 46 77 46 83 0 23 20 -21 20 -45z
m-3861 -279 c19 -33 60 -91 91 -131 l57 -71 -34 -57 c-19 -31 -36 -67 -40 -81
-13 -56 -20 -47 -114 140 -53 107 -56 116 -44 141 8 14 19 47 26 72 6 26 14
47 18 47 3 0 21 -27 40 -60z m3681 20 c0 -11 10 -49 21 -84 l21 -65 -46 -58
c-25 -32 -58 -73 -74 -92 l-29 -34 -12 49 c-7 27 -22 66 -34 86 l-20 38 43 52
c121 145 130 153 130 108z m-260 -289 c0 -7 12 -40 27 -73 32 -73 30 -78 -81
-191 l-79 -80 -18 76 c-10 43 -26 91 -34 108 -16 29 -15 31 12 52 15 12 57 49
93 83 62 60 79 66 80 25z m-3101 -98 c47 -42 95 -84 105 -94 18 -17 18 -19
-18 -60 -20 -24 -49 -68 -63 -98 l-27 -55 -86 93 -86 92 33 67 c18 37 36 82
39 100 3 17 9 32 11 32 3 0 44 -35 92 -77z m2830 -211 c11 -56 22 -106 26
-111 8 -14 -178 -151 -204 -151 -6 0 -11 15 -11 33 0 41 -22 122 -45 167 -10
19 -14 36 -9 37 5 2 56 32 114 68 58 35 106 62 107 61 1 -1 11 -48 22 -104z
m-2494 -23 c112 -64 124 -74 111 -88 -25 -29 -55 -97 -72 -165 -9 -36 -20 -66
-25 -66 -9 0 -202 130 -236 159 -29 24 -29 23 5 69 15 21 40 66 56 100 16 34
31 62 32 62 2 0 60 -32 129 -71z m2167 -119 c4 -30 16 -84 27 -120 11 -35 19
-65 17 -67 -13 -14 -182 -83 -192 -79 -9 3 -14 21 -14 48 0 24 -12 70 -26 103
-14 33 -28 67 -31 76 -3 12 18 26 89 57 51 22 100 40 108 39 10 -2 17 -20 22
-57z m-1771 -57 l77 -25 -35 -76 c-20 -42 -41 -102 -47 -134 -6 -32 -14 -58
-18 -58 -11 0 -158 55 -222 84 l-58 26 32 37 c44 50 62 97 64 164 l1 57 65
-25 c36 -14 99 -37 141 -50z m1472 -129 c16 -69 27 -128 25 -129 -5 -5 -167
-51 -203 -58 l-30 -6 3 62 c2 35 -4 93 -12 131 -9 38 -14 71 -12 73 5 5 173
50 191 52 6 1 23 -56 38 -125z m-1145 57 c63 -11 115 -21 118 -23 3 -4 -15
-117 -37 -225 -10 -52 -11 -53 -46 -53 -40 0 -264 48 -276 59 -4 4 4 22 18 41
35 48 65 133 65 186 0 41 2 44 23 39 12 -3 73 -14 135 -24z m806 -115 c9 -58
16 -120 16 -139 l0 -35 -107 -14 c-60 -7 -110 -13 -111 -12 -2 2 1 19 8 39 8
23 11 77 9 143 l-4 107 60 6 c125 12 110 23 129 -95z m-308 37 c-4 -27 -9 -92
-13 -145 l-6 -98 -149 0 c-81 0 -148 2 -148 4 0 2 12 28 28 57 23 46 27 65 27
141 l0 88 134 0 134 0 -7 -47z"/>
<path d="M2567 3994 c-10 -18 -26 -130 -32 -229 -3 -55 -8 -119 -11 -141 l-5
-41 -94 -5 c-81 -4 -104 -10 -170 -41 -145 -69 -241 -197 -265 -353 -38 -248
132 -469 407 -529 43 -10 83 -19 89 -21 14 -3 21 -116 29 -463 l5 -254 -65 7
c-218 22 -431 155 -552 343 -21 33 -51 87 -67 121 -45 95 -59 81 -30 -31 71
-275 333 -501 639 -550 l74 -11 5 -41 c3 -22 10 -95 15 -162 6 -66 15 -132 20
-145 l9 -23 11 28 c6 15 16 89 22 165 15 191 12 182 58 182 59 0 188 36 266
75 202 99 314 322 261 520 -51 192 -203 304 -459 338 l-92 13 -3 377 c-1 207
1 377 5 377 26 0 183 -44 266 -74 54 -20 103 -36 109 -36 20 0 -13 28 -81 69
-80 48 -152 77 -241 100 l-65 17 -7 120 c-12 203 -33 326 -51 298z m-50 -716
c-4 -133 -7 -300 -7 -373 l0 -131 -90 18 c-148 29 -227 84 -282 196 -30 60
-33 75 -33 157 0 83 2 95 34 153 58 107 158 179 285 207 110 24 100 50 93
-227z m237 -678 c125 -20 165 -38 226 -98 41 -42 62 -72 75 -111 49 -148 -39
-327 -201 -409 -68 -34 -155 -62 -196 -62 l-28 0 0 88 c0 49 3 204 7 345 l6
257 26 0 c14 0 53 -4 85 -10z"/>
</g>
</svg>
